HIERARCHY
ROOT Hips
{
	OFFSET -0.001795 -0.223333 0.028219
	CHANNELS 6 Xposition Yposition Zposition Zrotation Yrotation Xrotation
	JOINT LeftUpLeg
	{
		OFFSET 0.069520 -0.091406 -0.006815
		CHANNELS 3 Zrotation Yrotation Xrotation
		JOINT LeftLeg
		{
			OFFSET 0.034277 -0.375199 -0.004496
			CHANNELS 3 Zrotation Yrotation Xrotation
			JOINT LeftFoot
			{
				OFFSET -0.013596 -0.397961 -0.043693
				CHANNELS 3 Zrotation Yrotation Xrotation
				JOINT LeftToe
				{
					OFFSET 0.026358 -0.055791 0.119288
					CHANNELS 3 Zrotation Yrotation Xrotation
					End Site
					{
						OFFSET 0.000000 0.000000 0.000000
					}
				}
			}
		}
	}
	JOINT RightUpLeg
	{
		OFFSET -0.067670 -0.090522 -0.004320
		CHANNELS 3 Zrotation Yrotation Xrotation
		JOINT RightLeg
		{
			OFFSET -0.038290 -0.382569 -0.008850
			CHANNELS 3 Zrotation Yrotation Xrotation
			JOINT RightFoot
			{
				OFFSET 0.015774 -0.398415 -0.042312
				CHANNELS 3 Zrotation Yrotation Xrotation
				JOINT RightToe
				{
					OFFSET -0.025372 -0.048144 0.123348
					CHANNELS 3 Zrotation Yrotation Xrotation
					End Site
					{
						OFFSET 0.000000 0.000000 0.000000
					}
				}
			}
		}
	}
	JOINT Spine
	{
		OFFSET -0.002533 0.108963 -0.026696
		CHANNELS 3 Zrotation Yrotation Xrotation
		JOINT Spine1
		{
			OFFSET 0.005487 0.135180 0.001092
			CHANNELS 3 Zrotation Yrotation Xrotation
			JOINT Spine2
			{
				OFFSET 0.001457 0.052922 0.025425
				CHANNELS 3 Zrotation Yrotation Xrotation
				JOINT Neck
				{
					OFFSET -0.002778 0.213870 -0.042857
					CHANNELS 3 Zrotation Yrotation Xrotation
					JOINT Head
					{
						OFFSET 0.005152 0.064970 0.051349
						CHANNELS 3 Zrotation Yrotation Xrotation
						End Site
						{
							OFFSET 0.000000 0.000000 0.000000
						}
					}
				}
				JOINT LeftShoulder
				{
					OFFSET 0.078845 0.121749 -0.034090
					CHANNELS 3 Zrotation Yrotation Xrotation
					JOINT LeftArm
					{
						OFFSET 0.090977 0.030469 -0.008868
						CHANNELS 3 Zrotation Yrotation Xrotation
						JOINT LeftForeArm
						{
							OFFSET 0.259612 -0.012772 -0.027456
							CHANNELS 3 Zrotation Yrotation Xrotation
							JOINT LeftHand
							{
								OFFSET 0.249234 0.008986 -0.001171
								CHANNELS 3 Zrotation Yrotation Xrotation
								End Site
								{
									OFFSET 0.000000 0.000000 0.000000
								}
							}
						}
					}
				}
				JOINT RightShoulder
				{
					OFFSET -0.081759 0.118833 -0.038615
					CHANNELS 3 Zrotation Yrotation Xrotation
					JOINT RightArm
					{
						OFFSET -0.096012 0.032551 -0.009143
						CHANNELS 3 Zrotation Yrotation Xrotation
						JOINT RightForeArm
						{
							OFFSET -0.253742 -0.013329 -0.021401
							CHANNELS 3 Zrotation Yrotation Xrotation
							JOINT RightHand
							{
								OFFSET -0.255298 0.007772 -0.005559
								CHANNELS 3 Zrotation Yrotation Xrotation
								End Site
								{
									OFFSET 0.000000 0.000000 0.000000
								}
							}
						}
					}
				}
			}
		}
	}
}
MOTION
Frames: 7
Frame Time: 0.050000
0.000000 0.434206 0.000000 1.657008 -10.586776 66.292663 3.119199 -1.581920 -15.167673 -22.050667 17.463174 56.581558 9.585332 16.280831 -90.892852 0.000000 0.000000 0.000000 -12.291342 3.301524 -1.145465 6.292749 -0.455972 16.926640 -9.391962 -24.147774 -40.718248 0.000000 0.000000 0.000000 1.703682 -4.257117 119.489353 -33.327643 -66.788209 -175.172380 -35.446779 -58.346779 60.736590 10.688450 -25.626573 107.051793 0.000000 0.000000 0.000000 -43.975277 -17.592830 31.154195 19.646768 -31.828984 -5.674669 5.493139 -21.568876 -2.684632 0.000000 0.000000 0.000000 45.001794 26.247760 -22.977967 12.837211 0.290948 4.492948 14.899658 23.745724 3.460372 0.000000 0.000000 0.000000
0.006641 0.474015 0.009029 2.045119 -10.302090 72.537132 8.939844 -1.948743 -24.112825 -23.744813 21.956385 61.861870 8.845659 18.238072 -95.822836 0.000000 0.000000 0.000000 -14.835492 4.095714 -11.067597 10.308447 -1.182693 16.057869 -8.251426 -22.964255 -30.429155 0.000000 0.000000 0.000000 3.995063 -6.069898 105.012485 -0.554730 13.433907 168.333138 19.575477 16.114736 61.958870 -6.521912 8.133448 109.030205 0.000000 0.000000 0.000000 -56.134426 -27.297070 12.598512 10.576921 -26.512990 0.324303 2.343047 -25.084190 -0.487025 0.000000 0.000000 0.000000 60.259295 13.911388 18.717561 -10.007228 17.661899 -0.223584 -1.309488 30.193164 -2.114941 0.000000 0.000000 0.000000
0.012109 0.536591 0.018417 4.908906 -9.472462 81.495818 12.173044 -2.724346 -33.484506 -31.710871 28.252111 73.811768 8.572012 15.907710 -102.026277 0.000000 0.000000 0.000000 -17.376129 4.367570 -24.041922 11.892641 -1.587115 14.397442 -5.376476 -20.230351 -30.113815 0.000000 0.000000 0.000000 0.977191 -4.032007 106.153558 -0.235154 9.197129 -178.690585 8.984270 12.477183 66.759016 -5.001221 13.388418 117.341126 0.000000 0.000000 0.000000 -59.404012 -24.577110 7.654443 25.920341 -39.151143 -8.035527 2.267224 -24.318715 -0.549593 0.000000 0.000000 0.000000 59.707005 25.290225 19.053270 -22.221644 24.957982 -3.388176 -8.874638 32.427886 -4.181085 0.000000 0.000000 0.000000
0.014539 0.626871 0.027941 3.409320 -9.800862 94.146818 40.227276 -5.066603 -37.556955 -86.715010 44.359936 31.169998 12.911309 -2.755747 -103.045776 0.000000 0.000000 0.000000 -20.633497 4.433535 -35.428029 11.997600 -0.449551 1.407580 -5.076419 -18.393764 -4.870484 0.000000 0.000000 0.000000 -2.044954 3.385481 89.527621 -4.290453 -3.585182 -175.949864 -1.275706 -7.851456 129.588004 0.271340 20.873224 131.058442 0.000000 0.000000 0.000000 -59.623609 -34.070058 9.507736 75.988319 -42.724409 -33.822321 25.891853 -23.810176 -7.372220 0.000000 0.000000 0.000000 50.040270 28.494162 20.305056 -76.684061 26.564502 -20.561910 -33.115673 21.059977 -10.754157 0.000000 0.000000 0.000000
0.015811 0.716705 0.033864 6.094562 -6.792413 112.221385 84.021306 -28.374460 -12.185997 -143.353944 20.000893 -28.047415 25.490823 -21.735003 -104.338982 0.000000 0.000000 0.000000 -23.057141 1.755178 -49.137363 15.589193 -0.299504 -6.291355 -5.643713 -24.714527 -3.180615 0.000000 0.000000 0.000000 -5.692297 1.326779 71.974773 -1.121257 6.106435 -165.048755 -4.672824 -1.057450 155.583265 2.376393 21.102238 140.181131 0.000000 0.000000 0.000000 -37.520899 -29.017805 8.757738 96.196236 -13.805285 -10.242852 26.474752 8.925061 -0.150406 0.000000 0.000000 0.000000 26.041855 23.222089 20.259687 -90.560175 -0.201116 -3.010235 -34.567095 -19.593142 0.112183 0.000000 0.000000 0.000000
0.020254 0.805342 0.033737 7.301695 -5.177343 126.253466 61.050231 -45.073981 25.640620 -136.200371 -21.334737 -41.444384 31.492971 -11.018909 -107.246578 0.000000 0.000000 0.000000 -22.898082 -1.761868 -54.718500 25.200056 -1.303983 -7.315038 -1.160558 -32.932589 -24.260382 0.000000 0.000000 0.000000 -8.262769 -0.012556 51.105641 5.498097 8.059405 -123.714432 -3.546894 -2.734261 138.475298 14.748294 45.759936 157.624803 0.000000 0.000000 0.000000 -24.388136 -21.043179 6.482297 92.262840 -3.353629 -11.453350 23.111458 17.560018 2.143883 0.000000 0.000000 0.000000 14.489415 8.334115 24.474385 -86.428344 -19.687492 10.339916 -18.249450 -37.736602 -0.961291 0.000000 0.000000 0.000000
0.029861 0.870920 0.031561 9.541238 -5.295942 139.697527 33.346266 -33.309779 28.571260 -61.336709 -41.428221 -94.220820 20.617042 8.747367 -96.159395 0.000000 0.000000 0.000000 -25.998528 -2.282143 -52.756902 36.478045 -4.167151 -11.057493 10.391083 -41.997020 -57.210454 0.000000 0.000000 0.000000 -3.314643 -3.793270 27.451745 2.429724 1.427400 -57.560922 9.089403 -4.335437 63.610249 -23.641696 48.104825 111.625474 0.000000 0.000000 0.000000 -39.392599 -30.243190 26.742190 91.450512 -4.987434 -18.930400 22.210423 2.756134 2.468020 0.000000 0.000000 0.000000 21.964114 17.608158 34.229882 -84.565018 -14.936605 15.113714 -27.617015 -31.338505 8.695508 0.000000 0.000000 0.000000
